<?xml version="1.0" encoding="UTF-8"?><svg id="a" xmlns="http://www.w3.org/2000/svg" viewBox="0 0 300 200"><defs><style>.b{stroke-dasharray:0 0 0 0 0 0 14.37 4.79 4.79 4.79 4.79 4.79;}.b,.c,.d{stroke:#333;stroke-miterlimit:10;stroke-width:2px;}.b,.d{fill:none;}.c{fill:#e0e1e3;}.e{fill:#333;stroke-width:0px;}</style></defs><rect class="c" x="68.36" y="40.79" width="166.69" height="118.41"/><line class="b" x1="151.71" y1="40.79" x2="151.71" y2="159.21"/><path class="d" d="m181.84,111.21h59.54c45.74-1.53,24.69-37.47,0-45.12"/><path class="e" d="m241.94,65.42l8.09,10.21c-.5-1.69-.81-3.45-.45-4.6.13-.43.59-.66,1-.53.43.13.66.57.53,1-.49,1.59,1.11,5.97,2.25,8.37.17.36.04.8-.3,1.01-.35.21-.8.14-1.05-.17l-12.36-15.6c-.08-.07-.09-.19-.03-.27.05-.07.14-.1.23-.07.7.22,1.4.43,2.1.65Z"/></svg>