<?xml version="1.0" encoding="UTF-8"?><svg id="a" xmlns="http://www.w3.org/2000/svg" viewBox="0 0 300 200"><defs><style>.b{stroke-dasharray:0 0 14.32 4.77;}.b,.c,.d{stroke-miterlimit:10;}.b,.c,.d,.e{stroke:#333;stroke-width:2px;}.b,.d,.e{fill:none;}.c{fill:#e0e1e3;}.f{fill:#333;stroke-width:0px;}.e{stroke-linejoin:round;}</style></defs><rect class="c" x="96.3" y="46.82" width="106.37" height="106.37"/><line class="d" x1="96.3" y1="46.82" x2="202.67" y2="153.18"/><line class="d" x1="202.67" y1="46.82" x2="96.3" y2="153.18"/><line class="b" x1="149.48" y1="153.18" x2="203.38" y2="99.28"/><line class="b" x1="96.3" y1="100" x2="149.2" y2="47.1"/><path class="e" d="m97.61,47.26c-4.03-27.26,25.1-40.86,50.47,27.97"/><path class="f" d="m101.3,46.37c.38,2.04-.96,4.01-3,4.39-2.04.38-4.01-.96-4.39-3-.38-2.04.96-4.01,3-4.39,2.04-.38,4.01.96,4.39,3Z"/><polygon class="f" points="151.78 85.91 140.33 73.07 147.72 74.46 152.59 68.73 151.78 85.91"/><line class="e" x1="149.74" y1="99.7" x2="151.78" y2="98.57"/><path class="f" d="m151.73,102.89c-1.81,1.01-4.1.35-5.11-1.46s-.35-4.1,1.46-5.11c1.81-1.01,4.1-.35,5.11,1.46,1.01,1.81.35,4.1-1.46,5.11Z"/><path class="e" d="m203.33,152.74c4.03,27.26-25.1,40.86-50.47-27.97"/><path class="f" d="m199.63,153.63c-.38-2.04.96-4.01,3-4.39,2.04-.38,4.01.96,4.39,3,.38,2.04-.96,4.01-3,4.39s-4.01-.96-4.39-3Z"/><polygon class="f" points="149.16 114.09 160.61 126.93 153.21 125.54 148.35 131.27 149.16 114.09"/></svg>