<?xml version="1.0" encoding="UTF-8"?><svg id="a" xmlns="http://www.w3.org/2000/svg" viewBox="0 0 300 200"><defs><style>.b{fill:#e0e1e3;stroke-miterlimit:10;}.b,.c{stroke:#333;stroke-width:2px;}.c{fill:none;stroke-linejoin:bevel;}</style></defs><path class="c" d="m177.4,76.36c12-17.72,38.5-24.17,38.5-24.17l-2.49-11.84,36.58,11.43-29.72,24.58-2.86-14.86c-12.58,0-32.01,4-40.01,14.86Z"/><polygon class="b" points="50 99.14 119.73 58.35 189.46 99.14 119.73 139.92 50 99.14"/><polyline class="c" points="119.73 159.66 119.73 139.92 114.47 109 50 99.14"/><polyline class="c" points="119.73 139.92 124.33 109 189.46 99.14 161.83 135.32 119.73 159.66 84.86 139.92 50 99.14 115.12 105.71 119.73 58.35 124.99 104.4 186.35 97.32"/></svg>