<?xml version="1.0" encoding="UTF-8"?><svg id="a" xmlns="http://www.w3.org/2000/svg" viewBox="0 0 300 200"><defs><style>.b{fill:#333;stroke-width:0px;}.c{fill:none;stroke:#333;stroke-miterlimit:10;stroke-width:2px;}</style></defs><line class="c" x1="150" y1="64.44" x2="150" y2="135.56"/><polygon class="b" points="150 146.86 143.5 130.94 150 134.72 156.5 130.94 150 146.86"/><line class="c" x1="140.62" y1="96.09" x2="159.38" y2="96.09"/><line class="c" x1="140.62" y1="103.91" x2="159.38" y2="103.91"/><line class="c" x1="240.62" y1="62.48" x2="240.62" y2="133.61"/><polygon class="b" points="240.62 144.91 234.12 128.99 240.62 132.76 247.12 128.99 240.62 144.91"/><line class="c" x1="231.24" y1="90.23" x2="250" y2="90.23"/><line class="c" x1="231.24" y1="98.05" x2="250" y2="98.05"/><line class="c" x1="231.24" y1="105.86" x2="250" y2="105.86"/><line class="c" x1="59.38" y1="66.39" x2="59.38" y2="137.52"/><polygon class="b" points="59.38 148.81 52.87 132.89 59.38 136.67 65.88 132.89 59.38 148.81"/><line class="c" x1="50" y1="101.95" x2="68.76" y2="101.95"/></svg>