<?xml version="1.0" encoding="UTF-8"?><svg id="a" xmlns="http://www.w3.org/2000/svg" viewBox="0 0 300 200"><defs><style>.b{fill:#333;stroke-width:0px;}.c{fill:none;stroke:#333;stroke-miterlimit:10;stroke-width:2px;}</style></defs><path class="c" d="m50,111.28c16.19-7.82,51.52-22.41,99.27-22.56,48.59-.15,84.52,14.73,100.73,22.56"/><path class="b" d="m50.65,111.85l6.48-11.3c-.24,1.75-.28,3.53.24,4.61.19.4.68.56,1.07.37.4-.19.57-.66.37-1.07-.72-1.5.21-6.07.98-8.61.12-.38-.08-.8-.44-.96-.38-.16-.81-.02-1.01.33l-9.9,17.27c-.07.08-.06.2,0,.28.06.06.15.08.24.04.66-.32,1.32-.64,1.98-.96Z"/><path class="b" d="m249.35,111.85l-6.48-11.3c.24,1.75.28,3.53-.24,4.61-.19.4-.68.56-1.07.37-.4-.19-.57-.66-.37-1.07.72-1.5-.21-6.07-.98-8.61-.12-.38.08-.8.44-.96.38-.16.81-.02,1.01.33l9.9,17.27c.07.08.06.2,0,.28-.06.06-.15.08-.24.04-.66-.32-1.32-.64-1.98-.96Z"/></svg>