<?xml version="1.0" encoding="UTF-8"?><svg id="a" xmlns="http://www.w3.org/2000/svg" viewBox="0 0 300 200"><defs><style>.b{fill:#e0e1e3;}.b,.c,.d,.e{stroke:#333;stroke-miterlimit:10;stroke-width:2px;}.c{stroke-dasharray:0 0 0 0 0 0 2.11 2.11 2.11 2.11 2.11 2.11;}.c,.d,.e{fill:none;}.f{fill:#333;stroke-width:0px;}.e{stroke-dasharray:0 0 18.8 6.27;}</style></defs><polygon class="b" points="225.56 25.55 225.56 165.4 147.74 165.4 142.64 160.83 69.92 95.48 147.74 25.55 225.56 25.55"/><line class="d" x1="225.56" y1="95.48" x2="69.92" y2="95.48"/><line class="d" x1="147.74" y1="165.41" x2="147.74" y2="95.48"/><line class="d" x1="147.74" y1="25.55" x2="69.92" y2="95.48"/><polyline class="d" points="69.92 95.48 142.64 160.83 147.74 165.4"/><line class="d" x1="142.64" y1="160.82" x2="142.7" y2="95.49"/><path class="c" d="m180.18,165.27c8.09,17.04,56.59,18.22,19.11-67.06-9.01-20.82-6.62-45.08-6.62-45.08"/><polygon class="f" points="193.78 41.89 198.7 58.37 192.59 53.97 185.75 57.09 193.78 41.89"/><path class="d" d="m180.18,165.27c8.09,17.04,56.59,18.22,19.11-67.07"/><line class="e" x1="50" y1="100.94" x2="250" y2="100.94"/></svg>