<?xml version="1.0" encoding="UTF-8"?><svg id="a" xmlns="http://www.w3.org/2000/svg" viewBox="0 0 300 200"><defs><style>.b{fill:#e0e1e3;}.b,.c{stroke:#333;stroke-miterlimit:10;stroke-width:2px;}.d{fill:#333;stroke-width:0px;}.c{fill:none;}</style></defs><rect class="b" x="50" y="28.97" width="200" height="142.07"/><path class="c" d="m61.94,110.35c14.26-7.18,45.36-20.55,87.41-20.69,42.79-.14,74.43,13.51,88.71,20.69"/><path class="d" d="m62.6,110.91l6.3-11.41c-.21,1.75-.23,3.54.31,4.61.2.4.69.55,1.07.36.4-.2.56-.67.36-1.07-.75-1.49.11-6.08.84-8.62.11-.38-.1-.79-.46-.95-.38-.15-.81,0-1.01.35l-9.62,17.43c-.07.09-.06.21.01.28.06.06.16.07.24.03.65-.33,1.31-.66,1.96-.99Z"/><path class="d" d="m237.4,110.91l-6.3-11.41c.21,1.75.23,3.54-.31,4.61-.2.4-.69.55-1.07.36-.4-.2-.56-.67-.36-1.07.75-1.49-.11-6.08-.84-8.62-.11-.38.1-.79.46-.95.38-.15.81,0,1.01.35l9.62,17.43c.07.09.06.21-.01.28-.06.06-.16.07-.24.03-.65-.33-1.31-.66-1.96-.99Z"/></svg>