<?xml version="1.0" encoding="UTF-8"?><svg id="a" xmlns="http://www.w3.org/2000/svg" viewBox="0 0 300 200"><defs><style>.b{fill:#333;stroke-width:0px;}.c{fill:none;stroke:#333;stroke-linejoin:round;stroke-width:2px;}</style></defs><path class="c" d="m114.34,116.19c-29.51-27.48-16.16-49.58,65.35-13.74"/><path class="b" d="m118.44,111.79c2.43,2.26,2.57,6.07.3,8.5s-6.07,2.57-8.5.3c-2.43-2.26-2.57-6.07-.3-8.5s6.07-2.57,8.5-.3Z"/><polygon class="b" points="190.03 107 172.84 106.55 178.92 102.12 178.08 94.64 190.03 107"/><line class="c" x1="194.62" y1="116.19" x2="200" y2="113.21"/><path class="b" d="m197.55,121.45c-2.9,1.61-6.57.57-8.18-2.34-1.61-2.9-.57-6.57,2.34-8.18,2.9-1.61,6.57-.57,8.18,2.34,1.61,2.9.57,6.57-2.34,8.18Z"/></svg>