<?xml version="1.0" encoding="UTF-8"?><svg id="a" xmlns="http://www.w3.org/2000/svg" viewBox="0 0 300 200"><defs><style>.b{fill:#e0e1e3;stroke-miterlimit:10;}.b,.c{stroke:#333;stroke-width:2px;}.c{fill:none;stroke-linejoin:bevel;}</style></defs><polygon class="b" points="50 90.63 116.22 51.9 182.44 90.63 116.22 129.36 50 90.63"/><polyline class="c" points="116.22 148.1 116.22 129.36 111.22 100 50 90.63"/><polyline class="c" points="116.22 129.36 120.59 100 182.44 90.63 156.2 124.99 116.22 148.1 83.11 129.36 50 90.63 111.85 96.88 116.22 51.9 121.22 95.63 179.49 88.9"/><path class="c" d="m186.7,64.38c9.83,4.3,12.91,8.6,12.91,18.44,8.6-12.29,19.2-19.09,35.18-18.48l-2,6.18,17.21-9.83-18.9-8.57,2.77,6.22c-14.14-3.69-47.17,6.04-47.17,6.04Z"/></svg>