<?xml version="1.0" encoding="UTF-8"?><svg id="a" xmlns="http://www.w3.org/2000/svg" viewBox="0 0 300 200"><defs><style>.b{fill:#e0e1e3;}.b,.c,.d,.e{stroke:#333;stroke-width:2px;}.b,.e{stroke-miterlimit:10;}.c,.d{stroke-linejoin:bevel;}.c,.e{fill:#fff;}.d{fill:none;}</style></defs><polygon class="b" points="240.88 100 165.88 175 122.4 131.52 165.88 25 240.88 100"/><polygon class="c" points="165.88 25 122.4 131.07 162.08 131.07 165.88 25"/><line class="d" x1="165.88" y1="25" x2="166.98" y2="175"/><path class="e" d="m182.22,74.17c-5.86-5.74-19.32-8.15-40.61-3.99-42.69,8.33-63.32,15.22-63.32,15.22l2.45,5.98-21.62-5.5,15.25-18,1.45,7.7c59.42-15.73,67.75-15.25,80.53-16.7,14.98-.3,27.6,5.31,25.88,15.28Z"/><path class="e" d="m162.9,108.74l.48-13.86c12.29-8.12,17.84-15.1,18.84-20.71,8.24,8,1.6,22.52-19.32,34.57Z"/></svg>