<?xml version="1.0" encoding="UTF-8"?><svg id="a" xmlns="http://www.w3.org/2000/svg" viewBox="0 0 300 200"><defs><style>.b{fill:#333;stroke-width:0px;}</style></defs><path class="b" d="m100.82,83.66c1.51-3.57,3.42-6.33,5.73-8.27,2.31-1.94,5.18-2.91,8.62-2.91,4.25,0,7.51,1.38,9.77,4.14,1.72,2.06,2.58,4.26,2.58,6.61,0,3.86-2.42,7.84-7.27,11.96,3.26,1.28,5.72,3.1,7.39,5.47,1.67,2.37,2.5,5.16,2.5,8.37,0,4.59-1.46,8.56-4.38,11.92-3.81,4.38-9.32,6.57-16.54,6.57-3.57,0-6-.44-7.29-1.33s-1.94-1.84-1.94-2.85c0-.76.31-1.42.92-1.99s1.35-.86,2.21-.86c.65,0,1.32.1,1.99.31.44.13,1.45.61,3.01,1.43s2.65,1.31,3.24,1.47c.96.29,1.99.43,3.09.43,2.66,0,4.97-1.03,6.94-3.09s2.95-4.5,2.95-7.31c0-2.06-.46-4.07-1.37-6.02-.68-1.46-1.42-2.57-2.23-3.32-1.12-1.04-2.66-1.99-4.61-2.83-1.95-.85-3.95-1.27-5.98-1.27h-1.25v-1.17c2.06-.26,4.12-1,6.2-2.23,2.07-1.22,3.58-2.7,4.52-4.42s1.41-3.61,1.41-5.67c0-2.68-.84-4.85-2.52-6.51-1.68-1.65-3.77-2.48-6.27-2.48-4.04,0-7.41,2.16-10.13,6.49l-1.29-.63Z"/><path class="b" d="m146.6,126.7v-1.45h1.99c2.24,0,3.83-.72,4.77-2.15.57-.86.86-2.79.86-5.79v-34.25c0-3.31-.36-5.38-1.09-6.22-1.02-1.15-2.53-1.72-4.53-1.72h-1.99v-1.45h21.58c7.92,0,13.95.9,18.08,2.7s7.45,4.8,9.97,8.99c2.51,4.2,3.77,9.04,3.77,14.54,0,7.38-2.24,13.54-6.72,18.49-5.03,5.53-12.69,8.29-22.99,8.29h-23.69Zm15.13-3.83c3.31.73,6.09,1.09,8.33,1.09,6.05,0,11.06-2.12,15.05-6.37,3.99-4.25,5.98-10.01,5.98-17.28s-1.99-13.1-5.98-17.32c-3.99-4.22-9.11-6.33-15.36-6.33-2.35,0-5.02.38-8.01,1.13v45.07Z"/></svg>