<?xml version="1.0" encoding="UTF-8"?><svg id="a" xmlns="http://www.w3.org/2000/svg" viewBox="0 0 300 200"><defs><style>.b{fill:#333;}.b,.c{stroke-width:0px;}.c{fill:#fff;}</style></defs><path class="c" d="m150.1,149c-14.5,0-15.33-8.3-15.36-8.65l-.08-1.03-1.03.11s-.42.05-1.09.05c-3.9,0-13.08-1.36-14.07-13.91,0-12.23,9.09-12.81,9.48-12.83l1.2-.06-.28-1.17c-.02-.07-1.53-6.61,1.98-11.06,2.24-2.84,6.08-4.28,11.4-4.28.58,0,1.18.02,1.8.05l1.06.06v-23.82l-15.19.4,21.2-21.4,20.12,21.47h-15.95v23.39l1.09-.1s.44-.04,1.11-.04c2.37,0,8.29.43,11.96,4.46,2.52,2.76,3.57,6.76,3.1,11.88l-.07.74.69.28c.41.17,10.07,4.19,8.09,14.09-1.99,9.95-12.52,10.48-12.97,10.5l-.92.04-.04.92c-.02.38-.7,9.51-16.21,9.91-.35,0-.69.01-1.02.01Z"/><path class="b" d="m151.11,52.88l17.83,19.03h-14.64v25.48s2.18-.19,2.18-.19c0,0,.39-.03,1.03-.03,2.24,0,7.82.4,11.22,4.13,2.32,2.55,3.28,6.29,2.84,11.12l-.13,1.48,1.37.56c.38.16,9.3,3.9,7.48,12.97-1.83,9.15-11.61,9.68-12.02,9.7l-1.8.09-.12,1.8c-.02.35-.74,8.6-15.24,8.98-.34,0-.67.01-.99.01-13.48,0-14.33-7.42-14.36-7.71l-.15-2.08-2.07.23s-.37.04-.98.04c-3.61,0-12.11-1.26-13.07-12.91.04-11.04,7.66-11.79,8.52-11.83l2.42-.11-.56-2.36c-.01-.06-1.41-6.16,1.8-10.22,2.04-2.58,5.61-3.89,10.61-3.89.56,0,1.15.02,1.75.05l2.11.12v-25.9l-2.05.05-11.67.3,18.71-18.9m.04-2.88l-23.68,23.91,16.65-.43v21.74c-.64-.04-1.26-.05-1.86-.05-18.37,0-14.36,16.57-14.36,16.57,0,0-10.43.43-10.43,13.91,1.08,13.65,11.48,14.83,15.07,14.83.75,0,1.21-.05,1.21-.05,0,0,.65,9.58,16.36,9.58.34,0,.69,0,1.05-.01,16.72-.43,17.19-10.87,17.19-10.87,0,0,11.74-.43,13.91-11.3,2.17-10.87-8.69-15.22-8.69-15.22,1.47-16.19-11.91-17.43-16.05-17.43-.75,0-1.2.04-1.2.04v-21.3h17.26l-22.4-23.91h0Z"/></svg>