<?xml version="1.0" encoding="UTF-8"?><svg id="a" xmlns="http://www.w3.org/2000/svg" viewBox="0 0 300 200"><defs><style>.b{fill:#e0e1e3;}.b,.c,.d{stroke:#333;stroke-width:2px;}.b,.d{stroke-miterlimit:10;}.e{fill:#333;stroke-width:0px;}.c{stroke-linejoin:bevel;}.c,.d{fill:none;}</style></defs><path class="c" d="m115.78,83.94c-2.96,15.3-16.42,26.85-32.59,26.85-14.42,0-26.7-9.2-31.27-22.05"/><polygon class="e" points="50 77.6 59.43 91.98 52.32 89.52 46.66 94.47 50 77.6"/><path class="c" d="m50.66,70.97c3.07-15.15,16.47-26.55,32.53-26.55,14.42,0,26.7,9.2,31.27,22.05"/><polygon class="e" points="116.38 77.6 106.95 63.22 114.06 65.69 119.72 60.73 116.38 77.6"/><polyline class="b" points="109.19 163.63 218.6 107.77 250 41.99 241.19 43.34"/><polygon class="b" points="244.38 36.37 175.96 60.5 104.23 158.67 179.92 96.86 109.19 163.63 214.3 102.15 244.38 36.37"/><polyline class="c" points="175.96 60.5 175.76 89.78 104.23 158.67"/><line class="c" x1="169.33" y1="69.57" x2="175.76" y2="89.78"/><line class="c" x1="202.14" y1="109.26" x2="185.02" y2="99.04"/><line class="c" x1="244.38" y1="36.37" x2="179.92" y2="96.86"/><polyline class="d" points="214.3 102.15 185.02 99.04 109.19 163.63"/></svg>