<?xml version="1.0" encoding="UTF-8"?><svg id="a" xmlns="http://www.w3.org/2000/svg" viewBox="0 0 300 200"><defs><style>.b{fill:#333;stroke-width:0px;}.c{fill:none;stroke:#333;stroke-linejoin:bevel;stroke-width:2px;}</style></defs><polyline class="c" points="100 52.03 100 147.97 200 147.97"/><path class="c" d="m100,117.34c16.93,0,30.63,13.7,30.63,30.63"/><path class="b" d="m132.5,109.54l2.89-.27c.25,1.36.71,2.35,1.4,2.96.69.61,1.58.92,2.66.92.92,0,1.74-.21,2.43-.64.7-.42,1.27-.99,1.72-1.7.45-.71.82-1.66,1.12-2.87.3-1.21.45-2.43.45-3.68,0-.14,0-.33-.02-.6-.6.96-1.42,1.73-2.47,2.33-1.04.6-2.17.89-3.39.89-2.03,0-3.75-.74-5.15-2.21-1.41-1.47-2.11-3.41-2.11-5.82s.73-4.49,2.2-6c1.47-1.52,3.3-2.28,5.51-2.28,1.59,0,3.05.43,4.37,1.29,1.32.86,2.33,2.08,3.01,3.67.69,1.59,1.03,3.89,1.03,6.9s-.34,5.63-1.02,7.49c-.68,1.86-1.69,3.27-3.04,4.24-1.34.97-2.92,1.46-4.73,1.46-1.92,0-3.48-.53-4.7-1.6-1.22-1.06-1.95-2.56-2.19-4.49Zm12.33-10.82c0-1.73-.46-3.1-1.38-4.12-.92-1.01-2.03-1.52-3.32-1.52s-2.5.55-3.5,1.64c-.99,1.1-1.49,2.51-1.49,4.25,0,1.56.47,2.83,1.41,3.81.94.98,2.1,1.47,3.49,1.47s2.54-.49,3.44-1.47c.9-.98,1.35-2.33,1.35-4.05Z"/><path class="b" d="m151.1,103.12c0-2.9.3-5.23.89-7,.6-1.77,1.48-3.13,2.66-4.09,1.18-.96,2.66-1.44,4.44-1.44,1.32,0,2.47.27,3.46.8.99.53,1.81,1.29,2.46,2.29.65,1,1.15,2.21,1.52,3.65s.55,3.37.55,5.8c0,2.88-.3,5.2-.89,6.96-.59,1.77-1.47,3.13-2.65,4.1-1.18.97-2.66,1.45-4.46,1.45-2.36,0-4.22-.85-5.57-2.54-1.62-2.04-2.42-5.37-2.42-9.97Zm3.09,0c0,4.03.47,6.7,1.41,8.04.94,1.33,2.1,2,3.49,2s2.54-.67,3.49-2.01c.94-1.34,1.41-4.01,1.41-8.03s-.47-6.72-1.41-8.05c-.94-1.33-2.12-1.99-3.52-1.99s-2.49.59-3.31,1.76c-1.04,1.5-1.56,4.26-1.56,8.28Z"/><path class="b" d="m170.87,94.91c0-1.28.45-2.38,1.36-3.28.91-.9,2-1.35,3.27-1.35s2.39.45,3.3,1.35c.9.91,1.35,2,1.35,3.28s-.45,2.38-1.36,3.28c-.91.91-2,1.36-3.29,1.36s-2.36-.45-3.27-1.36c-.91-.9-1.36-2-1.36-3.29Zm1.82,0c0,.78.27,1.44.83,2,.55.55,1.22.83,2,.83s1.43-.28,1.98-.83c.55-.55.83-1.22.83-2s-.27-1.45-.83-2c-.55-.55-1.21-.83-1.98-.83s-1.45.28-2,.83c-.55.55-.83,1.22-.83,2Z"/></svg>