<?xml version="1.0" encoding="UTF-8"?><svg id="a" xmlns="http://www.w3.org/2000/svg" viewBox="0 0 300 200"><defs><style>.b,.c,.d{fill:none;}.b,.c,.d,.e{stroke:#333;stroke-miterlimit:10;stroke-width:1.5px;}.f{fill:#333;stroke-width:0px;}.c{stroke-dasharray:0 0 0 0 0 0 14.37 4.79 4.79 4.79 4.79 4.79;}.d{stroke-dasharray:0 0 16.79 5.6;}.e{fill:#e0e1e3;}</style></defs><polyline class="b" points="50 62.3 96.74 62.3 78.68 69.74 121.17 69.74"/><polygon class="f" points="129.65 69.74 117.71 74.62 120.54 69.74 117.71 64.86 129.65 69.74"/><polyline class="b" points="50 87.24 96.74 87.24 78.68 79.8 121.17 79.8"/><polygon class="f" points="129.65 79.8 117.71 84.68 120.54 79.8 117.71 74.92 129.65 79.8"/><polygon class="e" points="250 150.96 218.71 79.82 184.91 57.11 134.45 74.77 186.42 79.31 185.92 134.82 250 150.96"/><polyline class="b" points="192.22 62.02 192.22 130.28 250 150.96"/><line class="b" x1="188.05" y1="59.22" x2="134.45" y2="74.77"/><line class="c" x1="170.56" y1="49.04" x2="170.56" y2="90.41"/><line class="d" x1="176.33" y1="49.04" x2="176.33" y2="90.41"/><line class="b" x1="186.42" y1="79.31" x2="192.22" y2="79.31"/></svg>